<?xml version="1.0" standalone="no"?>
<!DOCTYPE svg PUBLIC "-//W3C//DTD SVG 20010904//EN"
 "http://www.w3.org/TR/2001/REC-SVG-20010904/DTD/svg10.dtd">
<svg version="1.0" xmlns="http://www.w3.org/2000/svg"
 width="500.000000pt" height="500.000000pt" viewBox="0 0 500.000000 500.000000"
 preserveAspectRatio="xMidYMid meet">
<metadata>
Created by potrace 1.11, written by Peter Selinger 2001-2013
</metadata>
<g transform="translate(0.000000,500.000000) scale(0.100000,-0.100000)"
fill="#000000" stroke="none">
<path d="M383 4986 c-181 -44 -334 -202 -372 -384 -16 -75 -16 -4129 0 -4204
39 -187 200 -348 387 -387 75 -16 4129 -16 4204 0 187 39 348 200 387 387 16
75 16 4129 0 4204 -39 187 -200 348 -387 387 -81 17 -4148 14 -4219 -3z m2087
-1080 c475 -75 696 -261 730 -611 21 -228 -36 -430 -158 -559 -54 -56 -142
-110 -211 -130 -34 -9 -61 -21 -61 -25 0 -5 21 -14 48 -21 75 -20 191 -77 248
-121 222 -171 281 -615 123 -919 -123 -238 -393 -396 -749 -440 -50 -6 -328
-10 -682 -10 l-598 0 0 1431 0 1431 603 -5 c497 -3 620 -7 707 -21z m1223
-2417 c43 -11 101 -59 122 -98 61 -118 -12 -261 -146 -286 -99 -18 -204 60
-224 166 -15 82 47 185 130 214 49 17 69 18 118 4z"/>
<path d="M1770 3115 l0 -315 208 0 c296 1 395 17 494 79 34 22 53 44 74 88 26
51 29 69 29 153 0 80 -4 103 -24 143 -61 124 -213 167 -588 167 l-193 0 0
-315z"/>
<path d="M1770 1946 l0 -376 223 0 c311 1 414 17 510 81 92 61 138 160 140
299 2 189 -81 291 -278 346 -46 13 -121 18 -327 21 l-268 5 0 -376z"/>
</g>
</svg>
